<svg width="60" height="60" xmlns="http://www.w3.org/2000/svg" xmlns:xlink="http://www.w3.org/1999/xlink" xml:space="preserve" overflow="hidden"><defs><clipPath id="clip0"><rect x="-291" y="0" width="60" height="60"/></clipPath></defs><g clip-path="url(#clip0)" transform="translate(291 0)"><path d="M-276.625 51.25-276.625 8.75-261 8.75-261 21.875-245.375 21.875-245.375 51.25-276.625 51.25ZM-257.25 10.3125-249.438 18.125-257.25 18.125-257.25 10.3125ZM-257.25 5-280.375 5-280.375 55-241.625 55-241.625 18.75-257.25 5Z" fill="#0D0D0D"/><path d="M-272.875 28.125-249.125 28.125-249.125 30.625-272.875 30.625Z" fill="#0D0D0D"/><path d="M-272.875 23.125-264.75 23.125-264.75 25.625-272.875 25.625Z" fill="#0D0D0D"/><path d="M-272.875 33.125-249.125 33.125-249.125 35.625-272.875 35.625Z" fill="#0D0D0D"/><path d="M-272.875 38.125-249.125 38.125-249.125 40.625-272.875 40.625Z" fill="#0D0D0D"/><path d="M-272.875 43.125-249.125 43.125-249.125 45.625-272.875 45.625Z" fill="#0D0D0D"/></g></svg>