<svg width="2074" height="1767" xmlns="http://www.w3.org/2000/svg" xmlns:xlink="http://www.w3.org/1999/xlink" xml:space="preserve" overflow="hidden"><defs><clipPath id="clip0"><path d="M217 423 1768 423 1768 989.768 325.05 989.768 325.05 1652.8 1768 1652.8 1768 1974 217 1974Z" fill-rule="evenodd" clip-rule="evenodd"/></clipPath></defs><g transform="translate(65 -423)"><g clip-path="url(#clip0)"><g><g><path d="M588.594 1747.81 588.594 649.188 992.5 649.188 992.5 988.469 1396.41 988.469 1396.41 1747.81 588.594 1747.81ZM1089.44 689.578 1291.39 891.531 1089.44 891.531 1089.44 689.578ZM1089.44 552.25 491.656 552.25 491.656 1844.75 1493.34 1844.75 1493.34 907.688 1089.44 552.25Z"/><path d="M685.531 1150.03 1299.47 1150.03 1299.47 1214.66 685.531 1214.66Z"/><path d="M685.531 1020.78 895.562 1020.78 895.562 1085.41 685.531 1085.41Z"/><path d="M685.531 1279.28 1299.47 1279.28 1299.47 1343.91 685.531 1343.91Z"/><path d="M685.531 1408.53 1299.47 1408.53 1299.47 1473.16 685.531 1473.16Z"/><path d="M685.531 1537.78 1299.47 1537.78 1299.47 1602.41 685.531 1602.41Z"/></g></g></g><text font-family="Hubot-Sans ExtraBold,Hubot-Sans ExtraBold_MSFontService,sans-serif" font-weight="800" font-size="761" transform="matrix(1 0 0 1 391.576 1602)">CV</text></g></svg>